# File created by Blade
# Date/Time:  Wed Jan 21 16:14:13 2015
# Frame Rate: 120.000 fps
#------------------------------------------------------
:FULLY-SPECIFIED
:DEGREES
380
root 18.704088 35.660879 -18.906144 -182.324434 -4.110855 -179.191971
Spine -10.694495 1.385773 -1.101242
Head 11.594650 -5.885074 -1.651143
LeftShoulder 28.811257 -50.450738 -3.507471
LeftArm 39.970843 26.000702 -52.121468
LeftForeArm 17.975901 -0.000000 -1.807051
LeftHand -3.863618 -0.000000 -4.595699
LeftHandThumb1 -26.253704 0.000000 33.147579
RightShoulder 16.398910 12.987624 -12.246367
RightArm 62.252353 6.407207 45.413767
RightForeArm -39.023337 -0.000000 6.424117
RightHand 3.597007 -0.000000 11.074580
RightHandThumb1 -24.326973 -0.000000 -32.862282
LeftUpLeg 7.377107 8.265257 1.296303
LeftLeg -4.699904 -0.000000 0.000000
LeftFoot -18.581830 24.532227 -10.983873
LeftToeBase 27.238984 -0.000000 -0.000000
RightUpLeg 7.042485 -10.038916 0.453519
RightLeg -2.363071 -0.000000 0.000000
RightFoot -19.902251 -26.817105 13.329001
RightToeBase 24.018185 -0.000000 -0.000000
381
root 18.707973 35.660169 -18.905933 -182.331494 -3.999072 -179.179528
Spine -10.659653 1.457306 -1.073289
Head 11.707630 -5.833063 -1.682633
LeftShoulder 28.152985 -50.249899 -3.091429
LeftArm 39.717085 26.090959 -50.576851
LeftForeArm 17.679830 -0.000000 -1.741557
LeftHand -3.895954 -0.000000 -4.794764
LeftHandThumb1 -26.253704 0.000000 33.147579
RightShoulder 16.047811 12.790587 -12.261344
RightArm 61.522665 7.141893 45.025801
RightForeArm -39.150775 -0.000000 6.371941
RightHand 3.611102 -0.000000 11.012347
RightHandThumb1 -24.326973 -0.000000 -32.862282
LeftUpLeg 7.412811 8.319821 1.319284
LeftLeg -4.725084 -0.000000 0.000000
LeftFoot -18.601041 24.566637 -11.004402
LeftToeBase 27.241515 -0.000000 -0.000000
RightUpLeg 7.044620 -9.962354 0.472149
RightLeg -2.379955 -0.000000 0.000000
RightFoot -19.871980 -26.773012 13.388386
RightToeBase 23.828778 -0.000000 -0.000000
382
root 18.711097 35.659909 -18.905939 -182.323207 -3.903273 -179.165311
Spine -10.635606 1.523378 -1.040680
Head 11.778749 -5.780486 -1.688312
LeftShoulder 27.417316 -50.028988 -2.604600
LeftArm 39.445346 25.949315 -49.199461
LeftForeArm 17.672622 -0.000000 -1.789332
LeftHand -3.801219 -0.000000 -4.653211
LeftHandThumb1 -26.253704 0.000000 33.147579
RightShoulder 15.707848 12.644625 -12.277622
RightArm 60.638832 7.715642 44.341529
RightForeArm -39.258307 -0.000000 6.370387
RightHand 3.423819 0.000000 10.946333
RightHandThumb1 -24.326973 -0.000000 -32.862282
LeftUpLeg 7.430268 8.367139 1.338061
LeftLeg -4.755641 -0.000000 0.000000
LeftFoot -18.595481 24.625781 -11.006857
LeftToeBase 27.018870 -0.000000 -0.000000
RightUpLeg 7.034624 -9.927463 0.490372
RightLeg -2.398486 -0.000000 0.000000
RightFoot -19.843085 -26.712877 13.363595
RightToeBase 23.895515 -0.000000 -0.000000
383
root 18.715481 35.659925 -18.906863 -182.310315 -3.816612 -179.155350
Spine -10.603656 1.581808 -1.028522
Head 11.857959 -5.726090 -1.694302
LeftShoulder 26.744319 -49.929633 -2.167188
LeftArm 39.011348 25.956665 -47.801225
LeftForeArm 17.549498 -0.000000 -1.706224
LeftHand -3.935188 -0.000000 -4.642626
LeftHandThumb1 -26.253704 0.000000 33.147579
RightShoulder 15.368200 12.589607 -12.289231
RightArm 59.621896 8.260561 43.661174
RightForeArm -39.112345 0.000000 6.423851
RightHand 3.333772 0.000000 10.952979
RightHandThumb1 -24.326973 -0.000000 -32.862282
LeftUpLeg 7.442094 8.413639 1.356832
LeftLeg -4.772091 -0.000000 0.000000
LeftFoot -18.609145 24.634616 -11.019731
LeftToeBase 27.218144 -0.000000 -0.000000
RightUpLeg 7.023978 -9.900910 0.505594
RightLeg -2.413298 -0.000000 0.000000
RightFoot -19.826478 -26.664219 13.287902
RightToeBase 24.044931 -0.000000 -0.000000
384
root 18.719041 35.659471 -18.908045 -182.281358 -3.694364 -179.141370
Spine -10.590099 1.682708 -1.001806
Head 11.938179 -5.674658 -1.694126
LeftShoulder 26.018050 -49.736765 -1.731921
LeftArm 38.684324 25.882520 -46.335591
LeftForeArm 17.556077 -0.000000 -1.724176
LeftHand -4.034177 -0.000000 -4.702069
LeftHandThumb1 -26.253704 0.000000 33.147579
RightShoulder 14.969685 12.295823 -12.342964
RightArm 58.793857 8.936170 42.883785
RightForeArm -39.187069 -0.000000 6.279790
RightHand 3.394242 -0.000000 10.923607
RightHandThumb1 -24.326973 -0.000000 -32.862282
LeftUpLeg 7.450175 8.494783 1.376942
LeftLeg -4.808127 -0.000000 0.000000
LeftFoot -18.605409 24.665311 -11.014625
LeftToeBase 27.214014 -0.000000 -0.000000
RightUpLeg 6.993213 -9.845020 0.527572
RightLeg -2.433893 -0.000000 0.000000
RightFoot -19.806789 -26.602658 13.293656
RightToeBase 24.122501 -0.000000 -0.000000
385
root 18.722787 35.659559 -18.908829 -182.205325 -3.577413 -179.127958
Spine -10.636839 1.785010 -0.988078
Head 11.991194 -5.664379 -1.679875
LeftShoulder 25.400366 -49.547499 -1.344541
LeftArm 38.188007 25.731708 -44.919760
LeftForeArm 17.516838 -0.000000 -1.714922
LeftHand -3.909772 0.000000 -5.012859
LeftHandThumb1 -26.253704 0.000000 33.147579
RightShoulder 14.596552 12.386977 -12.422857
RightArm 57.543122 9.345970 42.227238
RightForeArm -39.400044 -0.000000 6.274189
RightHand 3.237233 -0.000000 10.821877
RightHandThumb1 -24.326973 -0.000000 -32.862282
LeftUpLeg 7.412424 8.566375 1.387478
LeftLeg -4.850395 -0.000000 0.000000
LeftFoot -18.608848 24.707901 -11.034332
LeftToeBase 27.192741 -0.000000 -0.000000
RightUpLeg 6.913390 -9.800988 0.557493
RightLeg -2.448646 -0.000000 0.000000
RightFoot -19.764644 -26.534900 13.269423
RightToeBase 24.074452 -0.000000 -0.000000
386
root 18.725828 35.659944 -18.909354 -182.099314 -3.476637 -179.111337
Spine -10.708786 1.859755 -0.973550
Head 12.030696 -5.655676 -1.638780
LeftShoulder 24.724422 -49.375816 -0.918881
LeftArm 37.710499 25.854803 -43.317896
LeftForeArm 17.312683 0.000000 -1.621381
LeftHand -3.943030 -0.000000 -5.088917
LeftHandThumb1 -26.253704 0.000000 33.147579
RightShoulder 14.183785 12.131117 -12.502733
RightArm 56.525403 9.921517 41.354763
RightForeArm -39.358819 -0.000000 6.263362
RightHand 2.932804 -0.000000 10.815652
RightHandThumb1 -24.326973 -0.000000 -32.862282
LeftUpLeg 7.329635 8.653119 1.397755
LeftLeg -4.871803 -0.000000 0.000000
LeftFoot -18.612445 24.726856 -11.028173
LeftToeBase 27.204433 -0.000000 -0.000000
RightUpLeg 6.806439 -9.763756 0.593520
RightLeg -2.473175 -0.000000 0.000000
RightFoot -19.723278 -26.445139 13.364737
RightToeBase 23.862054 -0.000000 -0.000000
387
root 18.728465 35.659878 -18.904432 -181.915345 -3.348413 -179.098305
Spine -10.836597 1.852308 -0.901095
Head 12.030639 -5.474149 -1.722195
LeftShoulder 23.913824 -49.325014 -0.440037
LeftArm 37.055945 25.979463 -41.806341
LeftForeArm 17.211881 -0.000000 -1.563830
LeftHand -3.873073 0.000000 -5.271826
LeftHandThumb1 -26.253704 0.000000 33.147579
RightShoulder 13.803844 11.713409 -12.668572
RightArm 55.689291 10.556517 40.461054
RightForeArm -39.190391 0.000000 6.191695
RightHand 2.823011 0.000000 10.829358
RightHandThumb1 -24.326973 -0.000000 -32.862282
LeftUpLeg 7.161641 8.740986 1.387011
LeftLeg -4.889618 -0.000000 0.000000
LeftFoot -18.630753 24.758791 -11.058722
LeftToeBase 27.203995 -0.000000 -0.000000
RightUpLeg 6.589525 -9.674315 0.644980
RightLeg -2.453513 -0.000000 0.000000
RightFoot -19.715081 -26.442806 13.279123
RightToeBase 24.239681 -0.000000 -0.000000
388
root 18.732851 35.660454 -18.902822 -181.730166 -3.291621 -179.089686
Spine -10.987363 2.020817 -0.972237
Head 12.075100 -5.570430 -1.610861
LeftShoulder 23.501460 -49.161829 -0.116661
LeftArm 36.407790 26.047218 -40.320444
LeftForeArm 17.174235 0.000000 -1.483177
LeftHand -3.778814 -0.000000 -5.270280
LeftHandThumb1 -26.253704 0.000000 33.147579
RightShoulder 13.295761 11.527287 -12.722889
RightArm 54.381820 10.975755 39.382343
RightForeArm -38.997359 -0.000000 6.212989
RightHand 2.962769 -0.000000 10.786563
RightHandThumb1 -24.326973 -0.000000 -32.862282
LeftUpLeg 6.982877 8.751869 1.372884
LeftLeg -4.896558 -0.000000 0.000000
LeftFoot -18.619238 24.804572 -11.041879
LeftToeBase 27.176053 -0.000000 -0.000000
RightUpLeg 6.403764 -9.650889 0.692141
RightLeg -2.472027 -0.000000 0.000000
RightFoot -19.719492 -26.377250 13.381461
RightToeBase 24.017737 -0.000000 -0.000000
389
root 18.736516 35.661187 -18.905658 -181.607178 -3.219283 -179.087128
Spine -11.038512 2.079963 -0.994666
Head 12.035565 -5.590974 -1.541030
LeftShoulder 22.710399 -48.830196 0.422922
LeftArm 36.004249 26.043474 -38.641922
LeftForeArm 17.130527 -0.000000 -1.405562
LeftHand -3.924527 -0.000000 -5.243826
LeftHandThumb1 -26.253704 0.000000 33.147579
RightShoulder 12.849822 11.327693 -12.829359
RightArm 53.141966 11.398604 38.378908
RightForeArm -38.872769 -0.000000 6.242714
RightHand 2.816811 0.000000 10.889679
RightHandThumb1 -24.326973 -0.000000 -32.862282
LeftUpLeg 6.887807 8.774796 1.364138
LeftLeg -4.920712 -0.000000 0.000000
LeftFoot -18.611231 24.836301 -11.058435
LeftToeBase 27.160321 -0.000000 -0.000000
RightUpLeg 6.289860 -9.636045 0.716423
RightLeg -2.499739 -0.000000 0.000000
RightFoot -19.672843 -26.344574 13.300655
RightToeBase 24.055471 -0.000000 -0.000000
